<?xml version="1.0" standalone="no"?>
<!DOCTYPE svg PUBLIC "-//W3C//DTD SVG 20010904//EN"
 "http://www.w3.org/TR/2001/REC-SVG-20010904/DTD/svg10.dtd">
<svg version="1.0" xmlns="http://www.w3.org/2000/svg"
 width="815.000000pt" height="847.000000pt" viewBox="0 0 815.000000 847.000000"
 preserveAspectRatio="xMidYMid meet">
<metadata>
Created by potrace 1.16, written by Peter Selinger 2001-2019
</metadata>
<g transform="translate(0.000000,847.000000) scale(0.100000,-0.100000)"
fill="#000000" stroke="none">
<path d="M0 4235 l0 -4235 4075 0 4075 0 0 4235 0 4235 -4075 0 -4075 0 0
-4235z m6257 3030 c262 -50 492 -193 651 -404 101 -134 178 -309 202 -461 6
-43 10 -780 10 -2170 -1 -2269 1 -2176 -53 -2326 -65 -177 -138 -292 -265
-416 -130 -127 -236 -193 -401 -250 -174 -60 -85 -58 -2325 -58 -2276 0 -2169
-3 -2353 66 -360 135 -611 429 -682 798 -21 106 -21 128 -21 2190 0 2046 0
2086 20 2184 77 384 320 666 699 808 144 54 52 52 2327 53 1845 1 2122 -1
2191 -14z"/>
<path d="M2975 5728 c-358 -40 -738 -252 -970 -541 -370 -460 -443 -1076 -191
-1600 182 -379 505 -659 913 -793 137 -45 264 -64 428 -64 120 0 361 25 377
39 4 3 2 24 -3 46 -6 22 -21 85 -34 140 -13 55 -35 150 -49 210 -15 61 -32
133 -39 160 l-13 50 -45 -2 c-267 -12 -360 -3 -489 48 -260 104 -447 310 -527
583 -24 80 -27 108 -27 231 0 124 3 151 28 235 73 251 234 446 459 555 279
135 590 116 851 -52 173 -111 290 -268 362 -483 l28 -85 4 -837 3 -838 320 0
320 0 -4 853 -3 852 -26 111 c-67 285 -192 521 -386 726 -334 350 -790 512
-1287 456z"/>
<path d="M6280 5729 c-95 -11 -249 -51 -346 -89 -281 -112 -525 -301 -693
-537 -125 -176 -234 -441 -260 -636 -7 -50 -11 -376 -11 -908 l0 -829 318 2
317 3 5 840 c6 892 4 849 56 983 121 308 423 523 764 544 l45 3 3 318 2 317
-62 -1 c-35 -1 -97 -5 -138 -10z"/>
</g>
</svg>
